<?xml version="1.0" encoding="utf-8" ?>
<svg baseProfile="full" height="654" version="1.1" viewBox="0 0 552 654" width="552" xmlns="http://www.w3.org/2000/svg" xmlns:ev="http://www.w3.org/2001/xml-events" xmlns:xlink="http://www.w3.org/1999/xlink"><defs /><rect fill="#ffffff" height="654" width="552" x="0" y="0" /><line stroke="#111111" stroke-linecap="round" stroke-width="2.2" x1="101.0" x2="123.0" y1="52" y2="52" /><polyline fill="none" points="116.84,45.84 123.0,52 116.84,58.16" stroke="#111111" stroke-linecap="round" stroke-linejoin="round" stroke-width="2.2" /><text fill="#333" font-family="Helvetica, Arial, sans-serif" font-size="9" text-anchor="middle" x="112.0" y="82">Move One Cell</text><text fill="#333" font-family="Helvetica, Arial, sans-serif" font-size="9" text-anchor="middle" x="112.0" y="94">RIGHT</text><line stroke="#111111" stroke-linecap="round" stroke-width="2.2" x1="204.0" x2="204.0" y1="41.0" y2="63.0" /><polyline fill="none" points="197.84,56.84 204.0,63.0 210.16,56.84" stroke="#111111" stroke-linecap="round" stroke-linejoin="round" stroke-width="2.2" /><text fill="#333" font-family="Helvetica, Arial, sans-serif" font-size="9" text-anchor="middle" x="204.0" y="82">Move One Cell</text><text fill="#333" font-family="Helvetica, Arial, sans-serif" font-size="9" text-anchor="middle" x="204.0" y="94">DOWN</text><line stroke="#111111" stroke-linecap="round" stroke-width="2.2" x1="307.0" x2="285.0" y1="52" y2="52" /><polyline fill="none" points="291.16,45.84 285.0,52 291.16,58.16" stroke="#111111" stroke-linecap="round" stroke-linejoin="round" stroke-width="2.2" /><text fill="#333" font-family="Helvetica, Arial, sans-serif" font-size="9" text-anchor="middle" x="296.0" y="82">Move One Cell</text><text fill="#333" font-family="Helvetica, Arial, sans-serif" font-size="9" text-anchor="middle" x="296.0" y="94">LEFT</text><line stroke="#111111" stroke-linecap="round" stroke-width="2.2" x1="388.0" x2="388.0" y1="63.0" y2="41.0" /><polyline fill="none" points="381.84,47.16 388.0,41.0 394.16,47.16" stroke="#111111" stroke-linecap="round" stroke-linejoin="round" stroke-width="2.2" /><text fill="#333" font-family="Helvetica, Arial, sans-serif" font-size="9" text-anchor="middle" x="388.0" y="82">Move One Cell</text><text fill="#333" font-family="Helvetica, Arial, sans-serif" font-size="9" text-anchor="middle" x="388.0" y="94">UP</text><polygon fill="#111111" points="483.52,41.0 473.4,54.2 479.56,54.2 476.48,63.0 486.6,49.36 480.44,49.36" stroke="none" /><text fill="#333" font-family="Helvetica, Arial, sans-serif" font-size="9" text-anchor="middle" x="480.0" y="82">Fill-In Square</text><text fill="#333" font-family="Helvetica, Arial, sans-serif" font-size="9" text-anchor="middle" x="480.0" y="94">with Color</text><text fill="#333" font-family="Helvetica, Arial, sans-serif" font-size="11" font-weight="bold" text-anchor="middle" x="40" y="156">Step</text><text fill="#333" font-family="Helvetica, Arial, sans-serif" font-size="12" text-anchor="middle" x="89.0" y="158">0</text><text fill="#333" font-family="Helvetica, Arial, sans-serif" font-size="12" text-anchor="middle" x="135.0" y="158">1</text><text fill="#333" font-family="Helvetica, Arial, sans-serif" font-size="12" text-anchor="middle" x="181.0" y="158">2</text><text fill="#333" font-family="Helvetica, Arial, sans-serif" font-size="12" text-anchor="middle" x="227.0" y="158">3</text><text fill="#333" font-family="Helvetica, Arial, sans-serif" font-size="12" text-anchor="middle" x="273.0" y="158">4</text><text fill="#333" font-family="Helvetica, Arial, sans-serif" font-size="12" text-anchor="middle" x="319.0" y="158">5</text><text fill="#333" font-family="Helvetica, Arial, sans-serif" font-size="12" text-anchor="middle" x="365.0" y="158">6</text><text fill="#333" font-family="Helvetica, Arial, sans-serif" font-size="12" text-anchor="middle" x="411.0" y="158">7</text><text fill="#333" font-family="Helvetica, Arial, sans-serif" font-size="12" text-anchor="middle" x="457.0" y="158">8</text><text fill="#333" font-family="Helvetica, Arial, sans-serif" font-size="12" text-anchor="middle" x="503.0" y="158">9</text><polygon fill="#FFD400" points="44.0,182.0 46.116026908252906,188.0875388202502 52.55950864665638,188.21884705062547 47.423803458662555,192.1124611797498 49.29006727063226,198.28115294937453 44.0,194.6 38.70993272936774,198.28115294937453 40.576196541337445,192.1124611797498 35.44049135334362,188.21884705062547 41.883973091747094,188.0875388202502" stroke="#7a5b00" stroke-linejoin="round" stroke-width="1.0" /><text fill="#333" font-family="Helvetica, Arial, sans-serif" font-size="12" text-anchor="middle" x="44" y="241.0">10</text><text fill="#333" font-family="Helvetica, Arial, sans-serif" font-size="12" text-anchor="middle" x="44" y="287.0">20</text><text fill="#333" font-family="Helvetica, Arial, sans-serif" font-size="12" text-anchor="middle" x="44" y="333.0">30</text><text fill="#333" font-family="Helvetica, Arial, sans-serif" font-size="12" text-anchor="middle" x="44" y="379.0">40</text><text fill="#333" font-family="Helvetica, Arial, sans-serif" font-size="12" text-anchor="middle" x="44" y="425.0">50</text><text fill="#333" font-family="Helvetica, Arial, sans-serif" font-size="12" text-anchor="middle" x="44" y="471.0">60</text><text fill="#333" font-family="Helvetica, Arial, sans-serif" font-size="12" text-anchor="middle" x="44" y="517.0">70</text><text fill="#333" font-family="Helvetica, Arial, sans-serif" font-size="12" text-anchor="middle" x="44" y="563.0">80</text><text fill="#333" font-family="Helvetica, Arial, sans-serif" font-size="12" text-anchor="middle" x="44" y="609.0">90</text><g fill="none" stroke="#333" stroke-width="1"><rect height="46" width="46" x="66" y="168" /><rect height="46" width="46" x="112" y="168" /><rect height="46" width="46" x="158" y="168" /><rect height="46" width="46" x="204" y="168" /><rect height="46" width="46" x="250" y="168" /><rect height="46" width="46" x="296" y="168" /><rect height="46" width="46" x="342" y="168" /><rect height="46" width="46" x="388" y="168" /><rect height="46" width="46" x="434" y="168" /><rect height="46" width="46" x="480" y="168" /><rect height="46" width="46" x="66" y="214" /><rect height="46" width="46" x="112" y="214" /><rect height="46" width="46" x="158" y="214" /><rect height="46" width="46" x="204" y="214" /><rect height="46" width="46" x="250" y="214" /><rect height="46" width="46" x="296" y="214" /><rect height="46" width="46" x="342" y="214" /><rect height="46" width="46" x="388" y="214" /><rect height="46" width="46" x="434" y="214" /><rect height="46" width="46" x="480" y="214" /><rect height="46" width="46" x="66" y="260" /><rect height="46" width="46" x="112" y="260" /><rect height="46" width="46" x="158" y="260" /><rect height="46" width="46" x="204" y="260" /><rect height="46" width="46" x="250" y="260" /><rect height="46" width="46" x="296" y="260" /><rect height="46" width="46" x="342" y="260" /><rect height="46" width="46" x="388" y="260" /><rect height="46" width="46" x="434" y="260" /><rect height="46" width="46" x="480" y="260" /><rect height="46" width="46" x="66" y="306" /><rect height="46" width="46" x="112" y="306" /><rect height="46" width="46" x="158" y="306" /><rect height="46" width="46" x="204" y="306" /><rect height="46" width="46" x="250" y="306" /><rect height="46" width="46" x="296" y="306" /><rect height="46" width="46" x="342" y="306" /><rect height="46" width="46" x="388" y="306" /><rect height="46" width="46" x="434" y="306" /><rect height="46" width="46" x="480" y="306" /><rect height="46" width="46" x="66" y="352" /><rect height="46" width="46" x="112" y="352" /><rect height="46" width="46" x="158" y="352" /><rect height="46" width="46" x="204" y="352" /><rect height="46" width="46" x="250" y="352" /><rect height="46" width="46" x="296" y="352" /><rect height="46" width="46" x="342" y="352" /><rect height="46" width="46" x="388" y="352" /><rect height="46" width="46" x="434" y="352" /><rect height="46" width="46" x="480" y="352" /><rect height="46" width="46" x="66" y="398" /><rect height="46" width="46" x="112" y="398" /><rect height="46" width="46" x="158" y="398" /><rect height="46" width="46" x="204" y="398" /><rect height="46" width="46" x="250" y="398" /><rect height="46" width="46" x="296" y="398" /><rect height="46" width="46" x="342" y="398" /><rect height="46" width="46" x="388" y="398" /><rect height="46" width="46" x="434" y="398" /><rect height="46" width="46" x="480" y="398" /><rect height="46" width="46" x="66" y="444" /><rect height="46" width="46" x="112" y="444" /><rect height="46" width="46" x="158" y="444" /><rect height="46" width="46" x="204" y="444" /><rect height="46" width="46" x="250" y="444" /><rect height="46" width="46" x="296" y="444" /><rect height="46" width="46" x="342" y="444" /><rect height="46" width="46" x="388" y="444" /><rect height="46" width="46" x="434" y="444" /><rect height="46" width="46" x="480" y="444" /><rect height="46" width="46" x="66" y="490" /><rect height="46" width="46" x="112" y="490" /><rect height="46" width="46" x="158" y="490" /><rect height="46" width="46" x="204" y="490" /><rect height="46" width="46" x="250" y="490" /><rect height="46" width="46" x="296" y="490" /><rect height="46" width="46" x="342" y="490" /><rect height="46" width="46" x="388" y="490" /><rect height="46" width="46" x="434" y="490" /><rect height="46" width="46" x="480" y="490" /><rect height="46" width="46" x="66" y="536" /><rect height="46" width="46" x="112" y="536" /><rect height="46" width="46" x="158" y="536" /><rect height="46" width="46" x="204" y="536" /><rect height="46" width="46" x="250" y="536" /><rect height="46" width="46" x="296" y="536" /><rect height="46" width="46" x="342" y="536" /><rect height="46" width="46" x="388" y="536" /><rect height="46" width="46" x="434" y="536" /><rect height="46" width="46" x="480" y="536" /><rect height="46" width="46" x="66" y="582" /><rect height="46" width="46" x="112" y="582" /><rect height="46" width="46" x="158" y="582" /><rect height="46" width="46" x="204" y="582" /><rect height="46" width="46" x="250" y="582" /><rect height="46" width="46" x="296" y="582" /><rect height="46" width="46" x="342" y="582" /><rect height="46" width="46" x="388" y="582" /><rect height="46" width="46" x="434" y="582" /><rect height="46" width="46" x="480" y="582" /></g><polygon fill="#111111" points="92.68,179.5 82.1,193.3 88.54,193.3 85.32,202.5 95.9,188.24 89.46,188.24" stroke="none" /><line stroke="#111111" stroke-linecap="round" stroke-width="2.2" x1="123.5" x2="146.5" y1="191.0" y2="191.0" /><polyline fill="none" points="140.06,184.56 146.5,191.0 140.06,197.44" stroke="#111111" stroke-linecap="round" stroke-linejoin="round" stroke-width="2.2" /><polygon fill="#111111" points="184.68,179.5 174.1,193.3 180.54,193.3 177.32,202.5 187.9,188.24 181.46,188.24" stroke="none" /><line stroke="#111111" stroke-linecap="round" stroke-width="2.2" x1="227.0" x2="227.0" y1="202.5" y2="179.5" /><polyline fill="none" points="220.56,185.94 227.0,179.5 233.44,185.94" stroke="#111111" stroke-linecap="round" stroke-linejoin="round" stroke-width="2.2" /><polygon fill="#111111" points="276.68,179.5 266.1,193.3 272.54,193.3 269.32,202.5 279.9,188.24 273.46,188.24" stroke="none" /><line stroke="#111111" stroke-linecap="round" stroke-width="2.2" x1="319.0" x2="319.0" y1="202.5" y2="179.5" /><polyline fill="none" points="312.56,185.94 319.0,179.5 325.44,185.94" stroke="#111111" stroke-linecap="round" stroke-linejoin="round" stroke-width="2.2" /><polygon fill="#111111" points="368.68,179.5 358.1,193.3 364.54,193.3 361.32,202.5 371.9,188.24 365.46,188.24" stroke="none" /><line stroke="#111111" stroke-linecap="round" stroke-width="2.2" x1="399.5" x2="422.5" y1="191.0" y2="191.0" /><polyline fill="none" points="416.06,184.56 422.5,191.0 416.06,197.44" stroke="#111111" stroke-linecap="round" stroke-linejoin="round" stroke-width="2.2" /><polygon fill="#111111" points="460.68,179.5 450.1,193.3 456.54,193.3 453.32,202.5 463.9,188.24 457.46,188.24" stroke="none" /><line stroke="#111111" stroke-linecap="round" stroke-width="2.2" x1="491.5" x2="514.5" y1="191.0" y2="191.0" /><polyline fill="none" points="508.06,184.56 514.5,191.0 508.06,197.44" stroke="#111111" stroke-linecap="round" stroke-linejoin="round" stroke-width="2.2" /><polygon fill="#111111" points="92.68,225.5 82.1,239.3 88.54,239.3 85.32,248.5 95.9,234.24 89.46,234.24" stroke="none" /><line stroke="#111111" stroke-linecap="round" stroke-width="2.2" x1="135.0" x2="135.0" y1="248.5" y2="225.5" /><polyline fill="none" points="128.56,231.94 135.0,225.5 141.44,231.94" stroke="#111111" stroke-linecap="round" stroke-linejoin="round" stroke-width="2.2" /><polygon fill="#111111" points="184.68,225.5 174.1,239.3 180.54,239.3 177.32,248.5 187.9,234.24 181.46,234.24" stroke="none" /><line stroke="#111111" stroke-linecap="round" stroke-width="2.2" x1="227.0" x2="227.0" y1="248.5" y2="225.5" /><polyline fill="none" points="220.56,231.94 227.0,225.5 233.44,231.94" stroke="#111111" stroke-linecap="round" stroke-linejoin="round" stroke-width="2.2" /><polygon fill="#111111" points="276.68,225.5 266.1,239.3 272.54,239.3 269.32,248.5 279.9,234.24 273.46,234.24" stroke="none" /><line stroke="#111111" stroke-linecap="round" stroke-width="2.2" x1="307.5" x2="330.5" y1="237.0" y2="237.0" /><polyline fill="none" points="324.06,230.56 330.5,237.0 324.06,243.44" stroke="#111111" stroke-linecap="round" stroke-linejoin="round" stroke-width="2.2" /><polygon fill="#111111" points="368.68,225.5 358.1,239.3 364.54,239.3 361.32,248.5 371.9,234.24 365.46,234.24" stroke="none" /><line stroke="#111111" stroke-linecap="round" stroke-width="2.2" x1="399.5" x2="422.5" y1="237.0" y2="237.0" /><polyline fill="none" points="416.06,230.56 422.5,237.0 416.06,243.44" stroke="#111111" stroke-linecap="round" stroke-linejoin="round" stroke-width="2.2" /><polygon fill="#111111" points="460.68,225.5 450.1,239.3 456.54,239.3 453.32,248.5 463.9,234.24 457.46,234.24" stroke="none" /></svg>