<?xml version="1.0" encoding="utf-8" ?>
<svg baseProfile="full" height="600" version="1.1" viewBox="0 0 600 600" width="600" xmlns="http://www.w3.org/2000/svg" xmlns:ev="http://www.w3.org/2001/xml-events" xmlns:xlink="http://www.w3.org/1999/xlink"><defs /><rect fill="#f4f1ea" height="600" width="600" x="0" y="0" /><g><polygon fill="#333333" points="277.5,261.02885682970026 284.6090935503449,257.7138320646341 269.2181871006898,215.42766412926824 255.00000000000003,222.05771365940052" stroke="none" /><polygon fill="#333333" points="284.6090935503449,257.7138320646341 292.18583200498813,255.68365111445064 284.37166400997626,211.36730222890128 269.2181871006898,215.42766412926824" stroke="none" /><polygon fill="#333333" points="269.2181871006898,215.42766412926824 284.37166400997626,211.36730222890128 276.5574960149644,167.05095334335192 253.82728065103473,173.14149619390236" stroke="none" /><polygon fill="#333333" points="253.82728065103473,173.14149619390236 276.5574960149644,167.05095334335192 268.74332801995257,122.73460445780256 238.43637420137964,130.85532825853647" stroke="none" /><polygon fill="#333333" points="276.5574960149644,167.05095334335192 300.0,165.0 300.0,120.0 268.74332801995257,122.73460445780256" stroke="none" /><polygon fill="#333333" points="300.0,165.0 323.4425039850356,167.05095334335192 331.2566719800475,122.73460445780256 300.0,120.0" stroke="none" /><polygon fill="#333333" points="300.0,120.0 331.2566719800475,122.73460445780256 339.07083997505936,78.4182555722532 300.0,75.0" stroke="none" /><polygon fill="#333333" points="300.0,75.0 339.07083997505936,78.4182555722532 346.88500797007123,34.10190668670384 300.0,30.0" stroke="none" /><polygon fill="#333333" points="339.07083997505936,78.4182555722532 376.9545322482755,88.56916032317062 392.3454386979306,46.28299238780477 346.88500797007123,34.10190668670384" stroke="none" /><polygon fill="#333333" points="376.9545322482755,88.56916032317062 412.5,105.14428414850133 435.0,66.17314097820159 392.3454386979306,46.28299238780477" stroke="none" /><polygon fill="#333333" points="322.5,261.02885682970026 328.9254424358943,265.528000059646 357.85088487178854,231.05600011929198 345.0,222.05771365940052" stroke="none" /><polygon fill="#333333" points="328.9254424358943,265.528000059646 334.471999940354,271.07455756410576 368.943999880708,242.14911512821146 357.85088487178854,231.05600011929198" stroke="none" /><polygon fill="#333333" points="357.85088487178854,231.05600011929198 368.943999880708,242.14911512821146 403.41599982106203,213.2236726923172 386.77632730768283,196.58400017893797" stroke="none" /><polygon fill="#333333" points="386.77632730768283,196.58400017893797 403.41599982106203,213.2236726923172 437.88799976141604,184.29823025642293 415.7017697435771,162.11200023858396" stroke="none" /><polygon fill="#333333" points="403.41599982106203,213.2236726923172 416.9134295108992,232.5 455.88457268119896,210.0 437.88799976141604,184.29823025642293" stroke="none" /><polygon fill="#333333" points="416.9134295108992,232.5 426.85850380609764,253.82728065103473 469.1446717414635,238.43637420137964 455.88457268119896,210.0" stroke="none" /><polygon fill="#333333" points="455.88457268119896,210.0 469.1446717414635,238.43637420137964 511.4308396768294,223.04546775172454 494.8557158514987,187.5" stroke="none" /><polygon fill="#333333" points="494.8557158514987,187.5 511.4308396768294,223.04546775172454 553.7170076121953,207.65456130206945 533.8268590217984,165.00000000000003" stroke="none" /><polygon fill="#333333" points="511.4308396768294,223.04546775172454 521.5817444277468,260.9291600249407 565.8980933132962,253.11499202992883 553.7170076121953,207.65456130206945" stroke="none" /><polygon fill="#333333" points="521.5817444277468,260.9291600249407 525.0,300.0 570.0,300.0 565.8980933132962,253.11499202992883" stroke="none" /><polygon fill="#333333" points="345.0,300.0 344.31634888554936,307.81416799501187 388.6326977710987,315.62833599002374 390.0,300.0" stroke="none" /><polygon fill="#333333" points="344.31634888554936,307.81416799501187 342.2861679353659,315.3909064496551 384.57233587073176,330.7818128993102 388.6326977710987,315.62833599002374" stroke="none" /><polygon fill="#333333" points="388.6326977710987,315.62833599002374 384.57233587073176,330.7818128993102 426.85850380609764,346.1727193489653 432.9490466566481,323.4425039850356" stroke="none" /><polygon fill="#333333" points="432.9490466566481,323.4425039850356 426.85850380609764,346.1727193489653 469.1446717414635,361.56362579862036 477.26539554219744,331.2566719800475" stroke="none" /><polygon fill="#333333" points="426.85850380609764,346.1727193489653 416.9134295108992,367.5 455.88457268119896,390.0 469.1446717414635,361.56362579862036" stroke="none" /><polygon fill="#333333" points="416.9134295108992,367.5 403.41599982106203,386.7763273076828 437.88799976141604,415.7017697435771 455.88457268119896,390.0" stroke="none" /><polygon fill="#333333" points="455.88457268119896,390.0 437.88799976141604,415.7017697435771 472.35999970177005,444.62721217947137 494.8557158514987,412.5" stroke="none" /><polygon fill="#333333" points="494.8557158514987,412.5 472.35999970177005,444.62721217947137 506.83199964212406,473.5526546153656 533.8268590217984,435.0" stroke="none" /><polygon fill="#333333" points="472.35999970177005,444.62721217947137 444.62721217947137,472.35999970177005 473.55265461536567,506.83199964212406 506.83199964212406,473.5526546153656" stroke="none" /><polygon fill="#333333" points="444.62721217947137,472.35999970177005 412.5,494.85571585149864 435.0,533.8268590217984 473.55265461536567,506.83199964212406" stroke="none" /><polygon fill="#333333" points="322.5,338.97114317029974 315.3909064496551,342.2861679353659 330.7818128993102,384.57233587073176 345.0,377.9422863405995" stroke="none" /><polygon fill="#333333" points="315.3909064496551,342.2861679353659 307.81416799501187,344.31634888554936 315.62833599002374,388.6326977710987 330.7818128993102,384.57233587073176" stroke="none" /><polygon fill="#333333" points="330.7818128993102,384.57233587073176 315.62833599002374,388.6326977710987 323.4425039850356,432.9490466566481 346.1727193489653,426.8585038060976" stroke="none" /><polygon fill="#333333" points="346.1727193489653,426.8585038060976 323.4425039850356,432.9490466566481 331.2566719800475,477.26539554219744 361.56362579862036,469.1446717414635" stroke="none" /><polygon fill="#333333" points="323.4425039850356,432.9490466566481 300.0,435.0 300.0,480.0 331.2566719800475,477.26539554219744" stroke="none" /><polygon fill="#333333" points="300.0,435.0 276.5574960149644,432.9490466566481 268.74332801995257,477.26539554219744 300.0,480.0" stroke="none" /><polygon fill="#333333" points="300.0,480.0 268.74332801995257,477.26539554219744 260.9291600249407,521.5817444277468 300.0,525.0" stroke="none" /><polygon fill="#333333" points="300.0,525.0 260.9291600249407,521.5817444277468 253.11499202992883,565.8980933132962 300.0,570.0" stroke="none" /><polygon fill="#333333" points="260.9291600249407,521.5817444277468 223.04546775172454,511.4308396768294 207.65456130206945,553.7170076121953 253.11499202992883,565.8980933132962" stroke="none" /><polygon fill="#333333" points="223.04546775172454,511.4308396768294 187.50000000000006,494.8557158514987 165.00000000000006,533.8268590217984 207.65456130206945,553.7170076121953" stroke="none" /><polygon fill="#333333" points="277.5,338.97114317029974 271.0745575641057,334.471999940354 242.14911512821146,368.943999880708 255.00000000000003,377.9422863405995" stroke="none" /><polygon fill="#333333" points="271.0745575641057,334.471999940354 265.528000059646,328.9254424358943 231.05600011929198,357.85088487178854 242.14911512821146,368.943999880708" stroke="none" /><polygon fill="#333333" points="242.14911512821146,368.943999880708 231.05600011929198,357.85088487178854 196.58400017893797,386.77632730768283 213.22367269231717,403.41599982106203" stroke="none" /><polygon fill="#333333" points="213.22367269231717,403.41599982106203 196.58400017893797,386.77632730768283 162.112000238584,415.7017697435771 184.29823025642293,437.88799976141604" stroke="none" /><polygon fill="#333333" points="196.58400017893797,386.77632730768283 183.08657048910078,367.5 144.11542731880104,390.0 162.112000238584,415.7017697435771" stroke="none" /><polygon fill="#333333" points="183.08657048910078,367.5 173.14149619390238,346.1727193489653 130.8553282585365,361.5636257986204 144.11542731880104,390.0" stroke="none" /><polygon fill="#333333" points="144.11542731880104,390.0 130.8553282585365,361.5636257986204 88.56916032317062,376.9545322482755 105.1442841485013,412.5" stroke="none" /><polygon fill="#333333" points="105.1442841485013,412.5 88.56916032317062,376.9545322482755 46.28299238780477,392.3454386979306 66.17314097820156,435.0" stroke="none" /><polygon fill="#333333" points="88.56916032317062,376.9545322482755 78.4182555722532,339.0708399750593 34.10190668670384,346.8850079700712 46.28299238780477,392.3454386979306" stroke="none" /><polygon fill="#333333" points="78.4182555722532,339.0708399750593 75.0,300.0 30.0,300.00000000000006 34.10190668670384,346.8850079700712" stroke="none" /><polygon fill="#333333" points="255.0,300.0 255.68365111445064,292.18583200498813 211.36730222890128,284.37166400997626 210.0,300.0" stroke="none" /><polygon fill="#333333" points="255.68365111445064,292.18583200498813 257.7138320646341,284.60909355034494 215.42766412926824,269.2181871006898 211.36730222890128,284.37166400997626" stroke="none" /><polygon fill="#333333" points="211.36730222890128,284.37166400997626 215.42766412926824,269.2181871006898 173.14149619390236,253.82728065103473 167.05095334335192,276.5574960149644" stroke="none" /><polygon fill="#333333" points="167.05095334335192,276.5574960149644 173.14149619390236,253.82728065103473 130.85532825853647,238.43637420137964 122.73460445780256,268.7433280199525" stroke="none" /><polygon fill="#333333" points="173.14149619390236,253.82728065103473 183.08657048910078,232.5 144.11542731880104,210.0 130.85532825853647,238.43637420137964" stroke="none" /><polygon fill="#333333" points="183.08657048910078,232.5 196.58400017893797,213.2236726923172 162.11200023858396,184.29823025642293 144.11542731880104,210.0" stroke="none" /><polygon fill="#333333" points="144.11542731880104,210.0 162.11200023858396,184.29823025642293 127.64000029822995,155.37278782052866 105.14428414850133,187.49999999999997" stroke="none" /><polygon fill="#333333" points="105.14428414850133,187.49999999999997 127.64000029822995,155.37278782052866 93.16800035787594,126.44734538463439 66.17314097820159,164.99999999999997" stroke="none" /><polygon fill="#333333" points="127.64000029822995,155.37278782052866 155.37278782052863,127.64000029822998 126.44734538463433,93.16800035787597 93.16800035787594,126.44734538463439" stroke="none" /><polygon fill="#333333" points="155.37278782052863,127.64000029822998 187.4999999999999,105.14428414850133 164.9999999999999,66.17314097820162 126.44734538463433,93.16800035787597" stroke="none" /></g><g fill="#f4f1ea" fill-opacity="0.33" stroke="none"><path d="M 322.500,261.029 L 435.000,66.173 A 270.000,270.000 0 0 1 570.000,300.000 L 345.000,300.000 A 45.000,45.000 0 0 0 322.500,261.029 Z" /><path d="M 345.000,300.000 L 570.000,300.000 A 270.000,270.000 0 0 1 435.000,533.827 L 322.500,338.971 A 45.000,45.000 0 0 0 345.000,300.000 Z" /><path d="M 322.500,338.971 L 435.000,533.827 A 270.000,270.000 0 0 1 165.000,533.827 L 277.500,338.971 A 45.000,45.000 0 0 0 322.500,338.971 Z" /><path d="M 277.500,338.971 L 165.000,533.827 A 270.000,270.000 0 0 1 30.000,300.000 L 255.000,300.000 A 45.000,45.000 0 0 0 277.500,338.971 Z" /><path d="M 255.000,300.000 L 30.000,300.000 A 270.000,270.000 0 0 1 165.000,66.173 L 277.500,261.029 A 45.000,45.000 0 0 0 255.000,300.000 Z" /></g><g fill="none" stroke="#000000" stroke-opacity="0.13725490196078433" stroke-width="1"><circle cx="300.0" cy="300.0" r="45.0" /><circle cx="300.0" cy="300.0" r="90.0" /><circle cx="300.0" cy="300.0" r="135.0" /><circle cx="300.0" cy="300.0" r="180.0" /><circle cx="300.0" cy="300.0" r="225.0" /><circle cx="300.0" cy="300.0" r="270.0" /></g><g stroke="#000000" stroke-opacity="0.10980392156862745" stroke-width="1"><line x1="277.5" x2="165.00000000000006" y1="261.02885682970026" y2="66.17314097820156" /><line x1="284.6090935503449" x2="207.65456130206945" y1="257.7138320646341" y2="46.28299238780471" /><line x1="292.18583200498813" x2="253.11499202992883" y1="255.68365111445064" y2="34.10190668670384" /><line x1="300.0" x2="300.0" y1="255.0" y2="30.0" /><line x1="307.81416799501187" x2="346.88500797007123" y1="255.68365111445064" y2="34.10190668670384" /><line x1="315.3909064496551" x2="392.3454386979306" y1="257.7138320646341" y2="46.28299238780477" /><line x1="322.5" x2="435.0" y1="261.02885682970026" y2="66.17314097820159" /><line x1="328.9254424358943" x2="473.55265461536567" y1="265.528000059646" y2="93.16800035787594" /><line x1="334.471999940354" x2="506.83199964212406" y1="271.07455756410576" y2="126.44734538463439" /><line x1="338.97114317029974" x2="533.8268590217984" y1="277.5" y2="165.00000000000003" /><line x1="342.2861679353659" x2="553.7170076121953" y1="284.6090935503449" y2="207.65456130206945" /><line x1="344.31634888554936" x2="565.8980933132962" y1="292.18583200498813" y2="253.11499202992883" /><line x1="345.0" x2="570.0" y1="300.0" y2="300.0" /><line x1="344.31634888554936" x2="565.8980933132962" y1="307.81416799501187" y2="346.8850079700712" /><line x1="342.2861679353659" x2="553.7170076121953" y1="315.3909064496551" y2="392.34543869793055" /><line x1="338.97114317029974" x2="533.8268590217984" y1="322.5" y2="435.0" /><line x1="334.471999940354" x2="506.83199964212406" y1="328.92544243589424" y2="473.5526546153656" /><line x1="328.9254424358943" x2="473.55265461536567" y1="334.471999940354" y2="506.83199964212406" /><line x1="322.5" x2="435.0" y1="338.97114317029974" y2="533.8268590217984" /><line x1="315.3909064496551" x2="392.3454386979306" y1="342.2861679353659" y2="553.7170076121952" /><line x1="307.81416799501187" x2="346.88500797007123" y1="344.31634888554936" y2="565.8980933132962" /><line x1="300.0" x2="300.0" y1="345.0" y2="570.0" /><line x1="292.18583200498813" x2="253.11499202992883" y1="344.31634888554936" y2="565.8980933132962" /><line x1="284.6090935503449" x2="207.65456130206945" y1="342.2861679353659" y2="553.7170076121953" /><line x1="277.5" x2="165.00000000000006" y1="338.97114317029974" y2="533.8268590217984" /><line x1="271.0745575641057" x2="126.44734538463436" y1="334.471999940354" y2="506.83199964212406" /><line x1="265.528000059646" x2="93.16800035787597" y1="328.9254424358943" y2="473.55265461536567" /><line x1="261.02885682970026" x2="66.17314097820156" y1="322.5" y2="435.0" /><line x1="257.7138320646341" x2="46.28299238780477" y1="315.3909064496551" y2="392.3454386979306" /><line x1="255.68365111445064" x2="34.10190668670384" y1="307.81416799501187" y2="346.8850079700712" /><line x1="255.0" x2="30.0" y1="300.0" y2="300.00000000000006" /><line x1="255.68365111445064" x2="34.10190668670384" y1="292.18583200498813" y2="253.11499202992877" /><line x1="257.7138320646341" x2="46.28299238780471" y1="284.60909355034494" y2="207.65456130206945" /><line x1="261.02885682970026" x2="66.17314097820159" y1="277.5" y2="164.99999999999997" /><line x1="265.528000059646" x2="93.16800035787594" y1="271.07455756410576" y2="126.44734538463439" /><line x1="271.0745575641057" x2="126.44734538463433" y1="265.528000059646" y2="93.16800035787597" /></g><line stroke="#ff0000" stroke-dasharray="8,6" stroke-opacity="0.8" stroke-width="2" x1="300.0" x2="165.00000000000006" y1="300.0" y2="66.17314097820156" /><line stroke="#ff0000" stroke-dasharray="8,6" stroke-opacity="0.8" stroke-width="2" x1="300.0" x2="435.0" y1="300.0" y2="66.17314097820159" /><line stroke="#ff0000" stroke-dasharray="8,6" stroke-opacity="0.27450980392156865" stroke-width="2" x1="300.0" x2="570.0" y1="300.0" y2="300.0" /><line stroke="#ff0000" stroke-dasharray="8,6" stroke-opacity="0.27450980392156865" stroke-width="2" x1="300.0" x2="435.0" y1="300.0" y2="533.8268590217984" /><line stroke="#ff0000" stroke-dasharray="8,6" stroke-opacity="0.27450980392156865" stroke-width="2" x1="300.0" x2="165.00000000000006" y1="300.0" y2="533.8268590217984" /><line stroke="#ff0000" stroke-dasharray="8,6" stroke-opacity="0.27450980392156865" stroke-width="2" x1="300.0" x2="30.0" y1="300.0" y2="300.00000000000006" /><circle cx="300.0" cy="300.0" fill="#000000" fill-opacity="0.43137254901960786" r="2" /><polygon fill="#FFD400" points="271.4732673325028,224.87422437502613 274.7531090402948,234.3099095464139 284.7405057348202,234.5134373034956 276.78016269342976,240.5485392036383 279.6728716019828,250.11001144655663 271.4732673325028,244.40422437502613 263.2736630630228,250.11001144655663 266.16637197157587,240.5485392036383 258.2060289301854,234.5134373034956 268.1934256247108,234.3099095464139" stroke="#7a5b00" stroke-linejoin="round" stroke-width="1.0" /></svg>